<?xml version="1.0" encoding="UTF-8" standalone="no"?><!DOCTYPE svg PUBLIC "-//W3C//DTD SVG 1.1//EN" "http://www.w3.org/Graphics/SVG/1.1/DTD/svg11.dtd"><svg width="100%" height="100%" viewBox="0 0 267 224" version="1.1" xmlns="http://www.w3.org/2000/svg" xmlns:xlink="http://www.w3.org/1999/xlink" xml:space="preserve" xmlns:serif="http://www.serif.com/" style="fill-rule:evenodd;clip-rule:evenodd;stroke-linecap:round;stroke-linejoin:round;stroke-miterlimit:1.5;"><g><g><path d="M249.414,127.53l-41.148,0" style="fill:none;stroke:#a6a6a6;stroke-width:6px;"/><path d="M249.414,76.122l-23.906,0" style="fill:none;stroke:#a6a6a6;stroke-width:6px;"/><path d="M232.286,58.986l-45.847,0" style="fill:none;stroke:#a6a6a6;stroke-width:6px;"/></g><g><g><path d="M102.288,56.131c6.595,-9.92 17.87,-16.463 30.661,-16.463c20.31,0 36.799,16.498 36.799,36.818c0,2.856 -0.326,5.638 -0.942,8.308" style="fill:none;stroke:#fc9f14;stroke-width:6px;"/><path d="M135.418,3l0,20.479" style="fill:none;stroke:#fc9f14;stroke-width:6px;"/><path d="M208.522,76.14l-20.469,0" style="fill:none;stroke:#fc9f14;stroke-width:6px;"/><path d="M83.726,24.422l14.474,14.481" style="fill:none;stroke:#fc9f14;stroke-width:6px;"/><path d="M187.111,24.422l-14.474,14.481" style="fill:none;stroke:#fc9f14;stroke-width:6px;"/></g><path d="M40.386,182.668c-20.393,0 -36.949,-16.565 -36.949,-36.968c0,-15.526 9.587,-28.829 23.157,-34.302c-0.043,-0.883 -0.064,-1.772 -0.064,-2.666c0,-30.605 24.835,-55.452 55.425,-55.452c22.526,0 41.932,13.475 50.597,32.8c5.483,-3.224 11.869,-5.074 18.683,-5.074c10.574,0 20.117,4.454 26.855,11.587" style="fill:none;stroke:#138aff;stroke-width:6px;"/><path d="M212.27,161.681c-5.962,12.411 -18.649,20.987 -33.323,20.987c0,0 -74.588,0 -74.588,0" style="fill:none;stroke:#138aff;stroke-width:6px;"/></g><g><path d="M263.687,110.394l-29.029,0" style="fill:none;stroke:#a6a6a6;stroke-width:6px;"/><path d="M263.687,93.258l-66.874,0" style="fill:none;stroke:#a6a6a6;stroke-width:6px;"/><path d="M190.656,127.53l-44.007,0" style="fill:none;stroke:#a6a6a6;stroke-width:6px;"/><path d="M217.358,110.394l-77.813,0" style="fill:none;stroke:#a6a6a6;stroke-width:6px;"/><path d="M232.286,144.666l-68.51,0" style="fill:none;stroke:#a6a6a6;stroke-width:6px;"/></g><g><path d="M62.266,115.759c0.284,-0.954 1.161,-1.608 2.156,-1.608c5.496,0 23.034,0 30.495,0c0.756,0 1.462,0.38 1.878,1.012c0.416,0.631 0.488,1.429 0.19,2.124c-3.238,7.558 -11.444,26.707 -14.682,34.264c-0.298,0.695 -0.227,1.494 0.19,2.125c0.416,0.631 1.122,1.011 1.878,1.011c5.335,0 15.693,0 22.01,0c0.903,0 1.719,0.541 2.071,1.373c0.353,0.832 0.173,1.794 -0.455,2.443c-12.172,12.568 -50.775,52.432 -60.288,62.255c-0.24,0.248 -0.619,0.3 -0.917,0.126c-0.299,-0.175 -0.439,-0.531 -0.34,-0.862c2.839,-9.523 11.762,-39.46 14.581,-48.917c0.203,-0.681 0.073,-1.418 -0.352,-1.987c-0.425,-0.57 -1.093,-0.906 -1.804,-0.906c-2.673,0 -6.556,0 -9.229,0c-0.711,0 -1.38,-0.335 -1.804,-0.905c-0.425,-0.57 -0.556,-1.306 -0.353,-1.987c2.941,-9.865 12.519,-41.993 14.775,-49.561Z" style="fill:#fc9f14;"/></g><path d="M166.722,197.884c-0.02,-0.245 -0.159,-0.464 -0.371,-0.587c-0.213,-0.123 -0.473,-0.133 -0.695,-0.028c-3.182,1.499 -13.233,6.456 -15.432,10.267c-2.503,4.338 -1.102,9.844 3.128,12.287c4.229,2.443 9.696,0.905 12.199,-3.434c2.199,-3.81 1.465,-14.998 1.171,-18.505Z" style="fill:#138aff;"/><path d="M115.98,198.155c0.319,-0.552 0.844,-0.955 1.46,-1.12c0.615,-0.165 1.271,-0.079 1.823,0.24c0.002,0.001 0.004,0.002 0.006,0.003c0.552,0.319 0.955,0.844 1.12,1.46c0.165,0.616 0.079,1.273 -0.24,1.825c-0.5,0.866 -2.56,4.437 -2.945,5.102c-0.1,0.175 -0.1,0.39 0,0.565c0.101,0.174 0.287,0.282 0.489,0.282c0.768,0 4.889,0 5.889,0c0.637,0 1.248,0.253 1.699,0.704c0.451,0.451 0.704,1.062 0.704,1.7c0,0.002 0,0.005 0,0.007c0,0.638 -0.253,1.249 -0.704,1.7c-0.451,0.451 -1.062,0.705 -1.699,0.705c-1,0 -5.121,0 -5.889,0c-0.202,0 -0.388,0.107 -0.489,0.282c-0.1,0.174 -0.1,0.389 0,0.564c0.385,0.666 2.445,4.236 2.945,5.102c0.319,0.553 0.405,1.209 0.24,1.825c-0.165,0.616 -0.568,1.141 -1.12,1.46c-0.002,0.001 -0.004,0.002 -0.006,0.003c-0.552,0.319 -1.208,0.406 -1.823,0.241c-0.616,-0.165 -1.141,-0.568 -1.46,-1.121c-0.5,-0.866 -2.56,-4.436 -2.944,-5.102c-0.101,-0.175 -0.287,-0.282 -0.489,-0.282c-0.201,0 -0.387,0.107 -0.488,0.282c-0.384,0.666 -2.444,4.236 -2.944,5.102c-0.319,0.553 -0.844,0.956 -1.46,1.121c-0.615,0.165 -1.271,0.078 -1.823,-0.241c-0.002,-0.001 -0.004,-0.002 -0.006,-0.003c-0.552,-0.319 -0.955,-0.844 -1.12,-1.46c-0.165,-0.616 -0.079,-1.272 0.24,-1.825c0.5,-0.866 2.56,-4.436 2.944,-5.102c0.101,-0.175 0.101,-0.39 0,-0.564c-0.1,-0.175 -0.286,-0.282 -0.488,-0.282c-0.768,0 -4.889,0 -5.889,0c-0.637,0 -1.249,-0.254 -1.699,-0.705c-0.451,-0.451 -0.704,-1.062 -0.704,-1.7c0,-0.002 0,-0.005 0,-0.007c0,-0.638 0.253,-1.249 0.704,-1.7c0.45,-0.451 1.062,-0.704 1.699,-0.704c1,0 5.121,0 5.889,0c0.202,0 0.388,-0.108 0.488,-0.282c0.101,-0.175 0.101,-0.39 0,-0.565c-0.384,-0.665 -2.444,-4.236 -2.944,-5.102c-0.319,-0.552 -0.405,-1.209 -0.24,-1.825c0.165,-0.616 0.568,-1.141 1.12,-1.46c0.002,-0.001 0.004,-0.002 0.006,-0.003c0.552,-0.319 1.208,-0.405 1.823,-0.24c0.616,0.165 1.141,0.568 1.46,1.12c0.5,0.866 2.56,4.437 2.944,5.102c0.101,0.175 0.287,0.283 0.488,0.283c0.202,0 0.388,-0.108 0.489,-0.283c0.384,-0.665 2.444,-4.236 2.944,-5.102Z" style="fill:#138aff;"/></g></svg>