<?xml version="1.0" encoding="UTF-8" standalone="no"?><!DOCTYPE svg PUBLIC "-//W3C//DTD SVG 1.1//EN" "http://www.w3.org/Graphics/SVG/1.1/DTD/svg11.dtd"><svg width="100%" height="100%" viewBox="0 0 41 41" version="1.1" xmlns="http://www.w3.org/2000/svg" xmlns:xlink="http://www.w3.org/1999/xlink" xml:space="preserve" xmlns:serif="http://www.serif.com/" style="fill-rule:evenodd;clip-rule:evenodd;stroke-linecap:round;stroke-linejoin:round;stroke-miterlimit:1.5;"><g><path d="M28.487,38.959l-16.5,0" style="fill:none;stroke:#a6a6a6;stroke-width:2px;"/><path d="M15.737,34.834l-9,0" style="fill:none;stroke:#a6a6a6;stroke-width:2px;"/><path d="M33.737,34.834l-13.5,0" style="fill:none;stroke:#a6a6a6;stroke-width:2px;"/><path d="M31.112,30.709l-21.75,0" style="fill:none;stroke:#a6a6a6;stroke-width:2px;"/><path d="M28.487,26.584l-16.5,0" style="fill:none;stroke:#a6a6a6;stroke-width:2px;"/><path d="M5.437,29.644c-1.357,-1.1 -2.226,-2.781 -2.226,-4.663c0,-2.52 1.557,-4.679 3.761,-5.567c-0.007,-0.144 -0.011,-0.288 -0.011,-0.433c0,-4.967 4.033,-9 9,-9c3.658,0 6.809,2.187 8.216,5.324c0.891,-0.524 1.928,-0.824 3.034,-0.824c2.848,0 5.236,1.989 5.848,4.652c2.664,0.612 4.652,3 4.652,5.848c0,2.06 -1.04,3.878 -2.623,4.959" style="fill:none;stroke:#138aff;stroke-width:2px;"/></g></svg>