<?xml version="1.0" encoding="UTF-8" standalone="no"?><!DOCTYPE svg PUBLIC "-//W3C//DTD SVG 1.1//EN" "http://www.w3.org/Graphics/SVG/1.1/DTD/svg11.dtd"><svg width="100%" height="100%" viewBox="0 0 15 15" version="1.1" xmlns="http://www.w3.org/2000/svg" xmlns:xlink="http://www.w3.org/1999/xlink" xml:space="preserve" xmlns:serif="http://www.serif.com/" style="fill-rule:evenodd;clip-rule:evenodd;stroke-linejoin:round;stroke-miterlimit:1.41421;"><path id="Close_button" d="M6.965,5.369l4.922,-4.922c0.418,-0.418 1.096,-0.418 1.514,0c0.418,0.418 0.418,1.096 0,1.514l-4.922,4.922l4.922,4.922c0.418,0.418 0.418,1.096 0,1.515c-0.418,0.418 -1.096,0.418 -1.514,0l-4.922,-4.922l-4.922,4.922c-0.418,0.418 -1.096,0.418 -1.515,0c-0.418,-0.419 -0.418,-1.097 0,-1.515l4.922,-4.922l-4.922,-4.922c-0.418,-0.418 -0.418,-1.096 0,-1.514c0.419,-0.418 1.097,-0.418 1.515,0l4.922,4.922Z" style="fill:#00192d;"/></svg>