<?xml version="1.0" encoding="UTF-8" standalone="no"?><!DOCTYPE svg PUBLIC "-//W3C//DTD SVG 1.1//EN" "http://www.w3.org/Graphics/SVG/1.1/DTD/svg11.dtd"><svg width="100%" height="100%" viewBox="0 0 41 41" version="1.1" xmlns="http://www.w3.org/2000/svg" xmlns:xlink="http://www.w3.org/1999/xlink" xml:space="preserve" xmlns:serif="http://www.serif.com/" style="fill-rule:evenodd;clip-rule:evenodd;stroke-linecap:round;stroke-linejoin:round;stroke-miterlimit:1.5;"><g><g><path d="M21.703,11.98c0.705,-2.24 2.799,-3.866 5.271,-3.866c3.049,0 5.525,2.475 5.525,5.525c0,0.999 -0.266,1.937 -0.731,2.747" style="fill:none;stroke:#fc9f14;stroke-width:2px;"/><path d="M26.974,1.459l0,3" style="fill:none;stroke:#fc9f14;stroke-width:2px;"/><path d="M39.154,13.639l-3,0" style="fill:none;stroke:#fc9f14;stroke-width:2px;"/><path d="M18.361,5.026l2.122,2.121" style="fill:none;stroke:#fc9f14;stroke-width:2px;"/><path d="M35.586,5.026l-2.121,2.121" style="fill:none;stroke:#fc9f14;stroke-width:2px;"/></g><path d="M6.972,19.414c-0.007,-0.144 -0.011,-0.288 -0.011,-0.433c0,-4.967 4.033,-9 9,-9c3.658,0 6.809,2.187 8.216,5.324c0.891,-0.524 1.928,-0.824 3.034,-0.824c2.848,0 5.236,1.989 5.848,4.652c2.664,0.612 4.652,3 4.652,5.848c0,3.311 -2.688,6 -6,6l-22.5,0c-3.311,0 -6,-2.689 -6,-6c0,-2.52 1.557,-4.679 3.761,-5.567Z" style="fill:none;stroke:#138aff;stroke-width:2px;"/></g></svg>