<?xml version="1.0" encoding="UTF-8" standalone="no"?><!DOCTYPE svg PUBLIC "-//W3C//DTD SVG 1.1//EN" "http://www.w3.org/Graphics/SVG/1.1/DTD/svg11.dtd"><svg width="100%" height="100%" viewBox="0 0 41 41" version="1.1" xmlns="http://www.w3.org/2000/svg" xmlns:xlink="http://www.w3.org/1999/xlink" xml:space="preserve" xmlns:serif="http://www.serif.com/" style="fill-rule:evenodd;clip-rule:evenodd;stroke-linecap:round;stroke-linejoin:round;stroke-miterlimit:1.5;"><g><path d="M21.703,11.98c0.705,-2.24 2.799,-3.866 5.271,-3.866c3.049,0 5.525,2.475 5.525,5.525c0,0.999 -0.266,1.937 -0.731,2.747" style="fill:none;stroke:#fc9f14;stroke-width:2px;"/><path d="M26.974,1.459l0,3" style="fill:none;stroke:#fc9f14;stroke-width:2px;"/><path d="M39.154,13.639l-3,0" style="fill:none;stroke:#fc9f14;stroke-width:2px;"/><path d="M18.361,5.026l2.122,2.121" style="fill:none;stroke:#fc9f14;stroke-width:2px;"/><path d="M35.586,5.026l-2.121,2.121" style="fill:none;stroke:#fc9f14;stroke-width:2px;"/><path d="M6.972,19.414c-0.007,-0.144 -0.011,-0.288 -0.011,-0.433c0,-4.967 4.033,-9 9,-9c3.658,0 6.809,2.187 8.216,5.324c0.891,-0.524 1.928,-0.824 3.034,-0.824c2.848,0 5.236,1.989 5.848,4.652c2.664,0.612 4.652,3 4.652,5.848c0,3.311 -2.688,6 -6,6l-22.5,0c-3.311,0 -6,-2.689 -6,-6c0,-2.52 1.557,-4.679 3.761,-5.567Z" style="fill:none;stroke:#138aff;stroke-width:2px;"/><path d="M30.14,33.934c0.079,-0.137 0.21,-0.237 0.363,-0.278c0.153,-0.041 0.316,-0.02 0.454,0.059c0,0.001 0.001,0.001 0.001,0.001c0.137,0.08 0.238,0.21 0.279,0.363c0.041,0.153 0.019,0.316 -0.06,0.454c-0.125,0.215 -0.637,1.102 -0.732,1.268c-0.025,0.043 -0.025,0.097 0,0.14c0.025,0.044 0.071,0.07 0.121,0.07c0.191,0 1.216,0 1.465,0c0.158,0 0.31,0.063 0.422,0.175c0.112,0.112 0.175,0.264 0.175,0.423c0,0.001 0,0.001 0,0.002c0,0.158 -0.063,0.31 -0.175,0.422c-0.112,0.112 -0.264,0.175 -0.422,0.175c-0.249,0 -1.274,0 -1.465,0c-0.05,0 -0.096,0.027 -0.121,0.07c-0.025,0.044 -0.025,0.097 0,0.141c0.095,0.165 0.607,1.053 0.732,1.268c0.079,0.137 0.101,0.3 0.06,0.454c-0.041,0.153 -0.142,0.283 -0.279,0.362c0,0.001 -0.001,0.001 -0.001,0.001c-0.138,0.08 -0.301,0.101 -0.454,0.06c-0.153,-0.041 -0.284,-0.141 -0.363,-0.278c-0.124,-0.216 -0.637,-1.103 -0.732,-1.269c-0.025,-0.043 -0.071,-0.07 -0.122,-0.07c-0.05,0 -0.096,0.027 -0.121,0.07c-0.095,0.166 -0.608,1.053 -0.732,1.269c-0.079,0.137 -0.21,0.237 -0.363,0.278c-0.153,0.041 -0.316,0.02 -0.454,-0.06c0,0 -0.001,0 -0.001,-0.001c-0.137,-0.079 -0.238,-0.209 -0.279,-0.362c-0.041,-0.154 -0.019,-0.317 0.06,-0.454c0.124,-0.215 0.637,-1.103 0.732,-1.268c0.025,-0.044 0.025,-0.097 0,-0.141c-0.025,-0.043 -0.071,-0.07 -0.121,-0.07c-0.191,0 -1.216,0 -1.465,0c-0.158,0 -0.31,-0.063 -0.422,-0.175c-0.112,-0.112 -0.175,-0.264 -0.175,-0.422c0,-0.001 0,-0.001 0,-0.002c0,-0.159 0.063,-0.311 0.175,-0.423c0.112,-0.112 0.264,-0.175 0.422,-0.175c0.249,0 1.274,0 1.465,0c0.05,0 0.096,-0.026 0.121,-0.07c0.025,-0.043 0.025,-0.097 0,-0.14c-0.095,-0.166 -0.608,-1.053 -0.732,-1.268c-0.079,-0.138 -0.101,-0.301 -0.06,-0.454c0.041,-0.153 0.142,-0.283 0.279,-0.363c0,0 0.001,0 0.001,-0.001c0.138,-0.079 0.301,-0.1 0.454,-0.059c0.153,0.041 0.284,0.141 0.363,0.278c0.124,0.216 0.637,1.103 0.732,1.268c0.025,0.044 0.071,0.071 0.121,0.071c0.051,0 0.097,-0.027 0.122,-0.071c0.095,-0.165 0.608,-1.052 0.732,-1.268Z" style="fill:#138aff;"/><path d="M19.64,33.934c0.079,-0.137 0.21,-0.237 0.363,-0.278c0.153,-0.041 0.316,-0.02 0.454,0.059c0,0.001 0.001,0.001 0.001,0.001c0.137,0.08 0.238,0.21 0.279,0.363c0.041,0.153 0.019,0.316 -0.06,0.454c-0.125,0.215 -0.637,1.102 -0.732,1.268c-0.025,0.043 -0.025,0.097 0,0.14c0.025,0.044 0.071,0.07 0.121,0.07c0.191,0 1.216,0 1.465,0c0.158,0 0.31,0.063 0.422,0.175c0.112,0.112 0.175,0.264 0.175,0.423c0,0.001 0,0.001 0,0.002c0,0.158 -0.063,0.31 -0.175,0.422c-0.112,0.112 -0.264,0.175 -0.422,0.175c-0.249,0 -1.274,0 -1.465,0c-0.05,0 -0.096,0.027 -0.121,0.07c-0.025,0.044 -0.025,0.097 0,0.141c0.095,0.165 0.607,1.053 0.732,1.268c0.079,0.137 0.101,0.3 0.06,0.454c-0.041,0.153 -0.142,0.283 -0.279,0.362c0,0.001 -0.001,0.001 -0.001,0.001c-0.138,0.08 -0.301,0.101 -0.454,0.06c-0.153,-0.041 -0.284,-0.141 -0.363,-0.278c-0.124,-0.216 -0.637,-1.103 -0.732,-1.269c-0.025,-0.043 -0.071,-0.07 -0.122,-0.07c-0.05,0 -0.096,0.027 -0.121,0.07c-0.095,0.166 -0.608,1.053 -0.732,1.269c-0.079,0.137 -0.21,0.237 -0.363,0.278c-0.153,0.041 -0.316,0.02 -0.454,-0.06c0,0 -0.001,0 -0.001,-0.001c-0.137,-0.079 -0.238,-0.209 -0.279,-0.362c-0.041,-0.154 -0.019,-0.317 0.06,-0.454c0.124,-0.215 0.637,-1.103 0.732,-1.268c0.025,-0.044 0.025,-0.097 0,-0.141c-0.025,-0.043 -0.071,-0.07 -0.121,-0.07c-0.191,0 -1.216,0 -1.465,0c-0.158,0 -0.31,-0.063 -0.422,-0.175c-0.112,-0.112 -0.175,-0.264 -0.175,-0.422c0,-0.001 0,-0.001 0,-0.002c0,-0.159 0.063,-0.311 0.175,-0.423c0.112,-0.112 0.264,-0.175 0.422,-0.175c0.249,0 1.274,0 1.465,0c0.05,0 0.096,-0.026 0.121,-0.07c0.025,-0.043 0.025,-0.097 0,-0.14c-0.095,-0.166 -0.608,-1.053 -0.732,-1.268c-0.079,-0.138 -0.101,-0.301 -0.06,-0.454c0.041,-0.153 0.142,-0.283 0.279,-0.363c0,0 0.001,0 0.001,-0.001c0.138,-0.079 0.301,-0.1 0.454,-0.059c0.153,0.041 0.284,0.141 0.363,0.278c0.124,0.216 0.637,1.103 0.732,1.268c0.025,0.044 0.071,0.071 0.121,0.071c0.051,0 0.097,-0.027 0.122,-0.071c0.095,-0.165 0.608,-1.052 0.732,-1.268Z" style="fill:#138aff;"/><path d="M9.132,33.934c0.079,-0.137 0.21,-0.237 0.363,-0.278c0.153,-0.041 0.316,-0.02 0.453,0.059c0.001,0.001 0.001,0.001 0.002,0.001c0.137,0.08 0.237,0.21 0.278,0.363c0.041,0.153 0.02,0.316 -0.06,0.454c-0.124,0.215 -0.636,1.102 -0.732,1.268c-0.025,0.043 -0.025,0.097 0,0.14c0.025,0.044 0.071,0.07 0.122,0.07c0.191,0 1.215,0 1.464,0c0.159,0 0.311,0.063 0.423,0.175c0.112,0.112 0.175,0.264 0.175,0.423c0,0.001 0,0.001 0,0.002c0,0.158 -0.063,0.31 -0.175,0.422c-0.112,0.112 -0.264,0.175 -0.423,0.175c-0.249,0 -1.273,0 -1.464,0c-0.051,0 -0.097,0.027 -0.122,0.07c-0.025,0.044 -0.025,0.097 0,0.141c0.096,0.165 0.608,1.053 0.732,1.268c0.08,0.137 0.101,0.3 0.06,0.454c-0.041,0.153 -0.141,0.283 -0.278,0.362c-0.001,0.001 -0.001,0.001 -0.002,0.001c-0.137,0.08 -0.3,0.101 -0.453,0.06c-0.153,-0.041 -0.284,-0.141 -0.363,-0.278c-0.125,-0.216 -0.637,-1.103 -0.733,-1.269c-0.025,-0.043 -0.071,-0.07 -0.121,-0.07c-0.05,0 -0.096,0.027 -0.121,0.07c-0.096,0.166 -0.608,1.053 -0.733,1.269c-0.079,0.137 -0.209,0.237 -0.363,0.278c-0.153,0.041 -0.316,0.02 -0.453,-0.06c-0.001,0 -0.001,0 -0.002,-0.001c-0.137,-0.079 -0.237,-0.209 -0.278,-0.362c-0.041,-0.154 -0.02,-0.317 0.06,-0.454c0.124,-0.215 0.636,-1.103 0.732,-1.268c0.025,-0.044 0.025,-0.097 0,-0.141c-0.025,-0.043 -0.071,-0.07 -0.121,-0.07c-0.192,0 -1.216,0 -1.465,0c-0.159,0 -0.311,-0.063 -0.423,-0.175c-0.112,-0.112 -0.175,-0.264 -0.175,-0.422c0,-0.001 0,-0.001 0,-0.002c0,-0.159 0.063,-0.311 0.175,-0.423c0.112,-0.112 0.264,-0.175 0.423,-0.175c0.249,0 1.273,0 1.465,0c0.05,0 0.096,-0.026 0.121,-0.07c0.025,-0.043 0.025,-0.097 0,-0.14c-0.096,-0.166 -0.608,-1.053 -0.732,-1.268c-0.08,-0.138 -0.101,-0.301 -0.06,-0.454c0.041,-0.153 0.141,-0.283 0.278,-0.363c0.001,0 0.001,0 0.002,-0.001c0.137,-0.079 0.3,-0.1 0.453,-0.059c0.154,0.041 0.284,0.141 0.363,0.278c0.125,0.216 0.637,1.103 0.733,1.268c0.025,0.044 0.071,0.071 0.121,0.071c0.05,0 0.096,-0.027 0.121,-0.071c0.096,-0.165 0.608,-1.052 0.733,-1.268Z" style="fill:#138aff;"/></g></svg>