<?xml version="1.0" encoding="UTF-8" standalone="no"?>
<!DOCTYPE svg PUBLIC "-//W3C//DTD SVG 1.1//EN" "http://www.w3.org/Graphics/SVG/1.1/DTD/svg11.dtd">
<svg width="100%" height="100%" viewBox="0 0 51 51" version="1.1" xmlns="http://www.w3.org/2000/svg" xmlns:xlink="http://www.w3.org/1999/xlink" xml:space="preserve" xmlns:serif="http://www.serif.com/" style="fill-rule:evenodd;clip-rule:evenodd;stroke-linejoin:round;stroke-miterlimit:1.41421;">
    <g transform="matrix(1,0,0,1,-135,-2885)">
        <g transform="matrix(1,0,0,1,-9249,0)">
            <g transform="matrix(0.921077,0,0,0.921077,7885.03,1001.4)">
                <rect x="1628" y="2045.72" width="54.284" height="54.284" style="fill:none;"/>
                <g id="ovc_-ra" transform="matrix(0.512152,0,0,0.512152,1628,2043.23)">
                    <path d="M57.058,97.347C56.274,98.96 54.631,99.988 52.837,99.988C51.983,99.988 51.144,99.755 50.412,99.313C48.075,97.735 47.315,94.6 48.668,92.126C49.841,89.936 55.477,86.709 56.596,86.085C56.874,85.927 57.217,85.935 57.487,86.105C57.766,86.286 57.939,86.594 57.948,86.927C58,88.281 58.231,95.157 57.058,97.347ZM0,62.9C-0.013,55.751 3.779,49.11 9.944,45.49C10.088,29.272 23.471,16.009 39.689,16.009C50.06,16.009 59.709,21.432 65.1,30.292C67.084,29.699 69.144,29.399 71.214,29.401C80.202,29.429 88.27,35.076 91.374,43.511C99.999,45.967 105.992,53.904 105.992,62.872C105.992,73.815 97.068,82.857 86.125,83L19.875,83C8.913,82.932 -0.055,73.862 0,62.9L0,62.9ZM86.035,49.5C85.239,41.947 78.814,36.136 71.219,36.1C67.847,36.096 64.575,37.25 61.951,39.367C58.959,29.662 49.928,22.996 39.772,22.996C27.04,22.996 16.563,33.473 16.563,46.205C16.563,47.425 16.659,48.644 16.851,49.849C10.868,51.315 6.627,56.722 6.627,62.882C6.627,70.175 12.572,76.202 19.865,76.3L86.135,76.3C93.486,76.3 99.535,70.251 99.535,62.9C99.535,55.549 93.486,49.5 86.135,49.5L86.035,49.5L86.035,49.5Z" style="fill:rgb(58,138,253);"/>
                </g>
            </g>
        </g>
    </g>
</svg>
