<?xml version="1.0" encoding="UTF-8" standalone="no"?><!DOCTYPE svg PUBLIC "-//W3C//DTD SVG 1.1//EN" "http://www.w3.org/Graphics/SVG/1.1/DTD/svg11.dtd"><svg width="100%" height="100%" viewBox="0 0 41 41" version="1.1" xmlns="http://www.w3.org/2000/svg" xmlns:xlink="http://www.w3.org/1999/xlink" xml:space="preserve" xmlns:serif="http://www.serif.com/" style="fill-rule:evenodd;clip-rule:evenodd;stroke-linecap:round;stroke-linejoin:round;stroke-miterlimit:1.5;"><g><path d="M13.449,31.035c-3.568,0 -4.238,0 -4.238,0c-3.311,0 -6,-2.689 -6,-6c0,-2.52 1.557,-4.679 3.761,-5.568c-0.007,-0.143 -0.011,-0.287 -0.011,-0.432c0,-4.967 4.033,-9 9,-9c3.658,0 6.809,2.187 8.216,5.323c0.891,-0.523 1.928,-0.823 3.034,-0.823c2.848,0 5.236,1.989 5.848,4.652c2.664,0.612 4.652,3 4.652,5.848c0,3.311 -2.688,6 -6,6c0,0 -0.692,0 -4.281,0" style="fill:none;stroke:#138aff;stroke-width:2px;"/><path d="M18.217,24.494c0.094,-0.317 0.387,-0.535 0.718,-0.535c0.858,0 2.518,0 3.636,0c0.252,0 0.488,0.126 0.626,0.337c0.139,0.21 0.163,0.477 0.064,0.708c-0.574,1.339 -1.544,3.6 -1.958,4.566c-0.044,0.102 -0.033,0.219 0.028,0.312c0.061,0.093 0.164,0.148 0.275,0.148c0.56,0 1.498,0 2.337,0c0.301,0 0.573,0.18 0.69,0.457c0.118,0.278 0.058,0.598 -0.151,0.815c-1.928,1.993 -5.614,5.805 -7.278,7.525c-0.104,0.108 -0.267,0.132 -0.397,0.06c-0.131,-0.073 -0.197,-0.224 -0.161,-0.368c0.434,-1.749 1.222,-4.927 1.502,-6.054c0.024,-0.098 0.002,-0.202 -0.061,-0.282c-0.062,-0.08 -0.158,-0.127 -0.26,-0.127c-0.242,0 -0.557,0 -0.859,0c-0.237,0 -0.46,-0.112 -0.602,-0.302c-0.141,-0.19 -0.185,-0.435 -0.117,-0.662c0.512,-1.718 1.566,-5.253 1.968,-6.598Z" style="fill:#fc9f14;"/></g></svg>