<svg xmlns="http://www.w3.org/2000/svg" viewBox="0 0 366.146 408.24" id="H1A9Hhfqf">
    <style type="text/css">
        @-webkit-keyframes Bk5A9B3zqf_Animation{0%{opacity: 0;}34.67%{opacity: 0;}43.33%{opacity: 1;}100%{opacity: 1;}}@keyframes Bk5A9B3zqf_Animation{0%{opacity: 0;}34.67%{opacity: 0;}43.33%{opacity: 1;}100%{opacity: 1;}}@-webkit-keyframes Bk5A9B3zqf_B1C6KhfcM_Animation{0%{-webkit-transform: translate(136px, -230px);transform: translate(136px, -230px);}43.33%{-webkit-transform: translate(136px, -260px);transform: translate(136px, -260px);}100%{-webkit-transform: translate(136px, -260px);transform: translate(136px, -260px);}}@keyframes Bk5A9B3zqf_B1C6KhfcM_Animation{0%{-webkit-transform: translate(136px, -230px);transform: translate(136px, -230px);}43.33%{-webkit-transform: translate(136px, -260px);transform: translate(136px, -260px);}100%{-webkit-transform: translate(136px, -260px);transform: translate(136px, -260px);}}@-webkit-keyframes SJD05S2G5z_Animation{14.67%{opacity: 0;}28.00%{opacity: 1;}39.33%{opacity: 1;}43.33%{opacity: 0;}0%{opacity: 0;}100%{opacity: 0;}}@keyframes SJD05S2G5z_Animation{14.67%{opacity: 0;}28.00%{opacity: 1;}39.33%{opacity: 1;}43.33%{opacity: 0;}0%{opacity: 0;}100%{opacity: 0;}}@-webkit-keyframes SklC9B3fqf_S1kMP2z5f_Animation{30.67%{-webkit-transform: scale(1, 1);transform: scale(1, 1);}43.33%{-webkit-transform: scale(1, 3.6);transform: scale(1, 3.6);}0%{-webkit-transform: scale(1, 1);transform: scale(1, 1);}100%{-webkit-transform: scale(1, 3.6);transform: scale(1, 3.6);}}@keyframes SklC9B3fqf_S1kMP2z5f_Animation{30.67%{-webkit-transform: scale(1, 1);transform: scale(1, 1);}43.33%{-webkit-transform: scale(1, 3.6);transform: scale(1, 3.6);}0%{-webkit-transform: scale(1, 1);transform: scale(1, 1);}100%{-webkit-transform: scale(1, 3.6);transform: scale(1, 3.6);}}@-webkit-keyframes SJD05S2G5z_SyOqUhz5M_Animation{16.67%{-webkit-transform: translate(0px, 0px);transform: translate(0px, 0px);}30.67%{-webkit-transform: translate(-20px, -140px);transform: translate(-20px, -140px);}43.33%{-webkit-transform: translate(-20px, -255px);transform: translate(-20px, -255px);}0%{-webkit-transform: translate(0px, 0px);transform: translate(0px, 0px);}100%{-webkit-transform: translate(-20px, -255px);transform: translate(-20px, -255px);}}@keyframes SJD05S2G5z_SyOqUhz5M_Animation{16.67%{-webkit-transform: translate(0px, 0px);transform: translate(0px, 0px);}30.67%{-webkit-transform: translate(-20px, -140px);transform: translate(-20px, -140px);}43.33%{-webkit-transform: translate(-20px, -255px);transform: translate(-20px, -255px);}0%{-webkit-transform: translate(0px, 0px);transform: translate(0px, 0px);}100%{-webkit-transform: translate(-20px, -255px);transform: translate(-20px, -255px);}}@-webkit-keyframes SklC9B3fqf_Syx-L2f9z_Animation{0%{-webkit-transform: translate(0px, 0px);transform: translate(0px, 0px);}6%{-webkit-transform: translate(0px, -20px);transform: translate(0px, -20px);}10.67%{-webkit-transform: translate(0px, 0px);transform: translate(0px, 0px);}16.67%{-webkit-transform: translate(0px, -20px);transform: translate(0px, -20px);}21.33%{-webkit-transform: translate(0px, 0px);transform: translate(0px, 0px);}100%{-webkit-transform: translate(0px, 0px);transform: translate(0px, 0px);}}@keyframes SklC9B3fqf_Syx-L2f9z_Animation{0%{-webkit-transform: translate(0px, 0px);transform: translate(0px, 0px);}6%{-webkit-transform: translate(0px, -20px);transform: translate(0px, -20px);}10.67%{-webkit-transform: translate(0px, 0px);transform: translate(0px, 0px);}16.67%{-webkit-transform: translate(0px, -20px);transform: translate(0px, -20px);}21.33%{-webkit-transform: translate(0px, 0px);transform: translate(0px, 0px);}100%{-webkit-transform: translate(0px, 0px);transform: translate(0px, 0px);}}#H1A9Hhfqf *{-webkit-animation-duration: 5s;animation-duration: 5s;-webkit-animation-iteration-count: infinite;animation-iteration-count: infinite;-webkit-animation-timing-function: cubic-bezier(0, 0, 1, 1);animation-timing-function: cubic-bezier(0, 0, 1, 1);transform-box: fill-box;-webkit-transform-origin: 50% 50%;transform-origin: 50% 50%;}#HJZAqHhfqf{fill: #ffffff;}#rymC9r3f9M{-webkit-transform:  translate(-34.115px, -13.093px);transform:  translate(-34.115px, -13.093px);fill: #ffffff;}#SyBRcBhfcf{-webkit-transform:  translate(-34.115px, -13.093px);transform:  translate(-34.115px, -13.093px);fill: #ffffff;}#By8R5H2GqM{-webkit-transform:  translate(-34.115px, -13.093px);transform:  translate(-34.115px, -13.093px);fill: #ffffff;}#BydRqHhGcM{-webkit-transform:  translate(-34.115px, -13.093px);transform:  translate(-34.115px, -13.093px);fill: #d51017;}#BJY0qrnG5M{-webkit-transform:  translate(-34.115px, -13.093px);transform:  translate(-34.115px, -13.093px);fill: #ffffff;}#r1sA9rhGcM{-webkit-transform:  translate(-34.115px, -13.093px);transform:  translate(-34.115px, -13.093px);fill: #e52c39;}#SklC9B3fqf_Syx-L2f9z{-webkit-animation-name: SklC9B3fqf_Syx-L2f9z_Animation;animation-name: SklC9B3fqf_Syx-L2f9z_Animation;-webkit-transform-origin: 50% 100%;transform-origin: 50% 100%;-webkit-animation-timing-function: cubic-bezier(0.42, 0, 0.58, 1);animation-timing-function: cubic-bezier(0.42, 0, 0.58, 1);}#SJD05S2G5z_SyOqUhz5M{-webkit-animation-name: SJD05S2G5z_SyOqUhz5M_Animation;animation-name: SJD05S2G5z_SyOqUhz5M_Animation;-webkit-transform-origin: 0% 0%;transform-origin: 0% 0%;}#SklC9B3fqf_S1kMP2z5f{-webkit-animation-name: SklC9B3fqf_S1kMP2z5f_Animation;animation-name: SklC9B3fqf_S1kMP2z5f_Animation;-webkit-transform-origin: 50% 100%;transform-origin: 50% 100%;-webkit-animation-timing-function: cubic-bezier(0, 0, 0.58, 1);animation-timing-function: cubic-bezier(0, 0, 0.58, 1);}#SJD05S2G5z{-webkit-animation-name: SJD05S2G5z_Animation;animation-name: SJD05S2G5z_Animation;-webkit-transform-origin: 0% 0%;transform-origin: 0% 0%;}#Hkf0qBnG5z_B1SLF2GqM{-webkit-transform-origin: undefined;transform-origin: undefined;}#Hkf0qBnG5z_r1avt3Gqf{-webkit-transform-origin: undefined;transform-origin: undefined;}#Hkf0qBnG5z_B1EFt3fcz{-webkit-transform-origin: undefined;transform-origin: undefined;}#Bk5A9B3zqf_B1C6KhfcM{-webkit-animation-name: Bk5A9B3zqf_B1C6KhfcM_Animation;animation-name: Bk5A9B3zqf_B1C6KhfcM_Animation;-webkit-transform-origin: undefined;transform-origin: undefined;}#Bk5A9B3zqf{-webkit-animation-name: Bk5A9B3zqf_Animation;animation-name: Bk5A9B3zqf_Animation;-webkit-transform-origin: undefined;transform-origin: undefined;}
    </style>
    <title>
        aioRollup
    </title>
    <g id="SklC9B3fqf_Syx-L2f9z" data-animator-group="true" data-animator-type="0">
        <g id="SklC9B3fqf_S1kMP2z5f" data-animator-group="true" data-animator-type="2">
            <g id="SklC9B3fqf">
                <rect x="115.463" y="140.724" width="142.318" height="44.474" id="HJZAqHhfqf"/>
            </g>
        </g>
    </g>
    <g id="H14RcB3Gcf">
        <path d="M237.982,240.711a7.549,7.549,0,0,0-7.549-7.549H213.825a7.549,7.549,0,1,0,0,15.1h16.608a7.548,7.548,0,0,0,7.549-7.549Zm0,0" id="SyBRcBhfcf"/>
        <path d="M295.283,13.093H148.974a22.673,22.673,0,0,0-22.647,22.648V250.506a22.673,22.673,0,0,0,22.647,22.647H295.283a22.672,22.672,0,0,0,22.647-22.647V35.741A22.672,22.672,0,0,0,295.283,13.093Zm7.549,237.413a7.558,7.558,0,0,1-7.549,7.549H148.974a7.558,7.558,0,0,1-7.549-7.549V223.013H302.832Zm0-42.591H141.425V35.741a7.557,7.557,0,0,1,7.549-7.549H295.283a7.557,7.557,0,0,1,7.549,7.549Z" id="By8R5H2GqM"/>
    </g>
    <g id="SJD05S2G5z_SyOqUhz5M" data-animator-group="true" data-animator-type="0">
        <g id="SJD05S2G5z">
            <path d="M355.045,397.538H294.751a9.6,9.6,0,0,1-9.592-9.591A14.323,14.323,0,0,1,297.4,373.834l25.822-4.054-43.535-43.535A12.24,12.24,0,0,1,297,308.935l11.331,11.332a12.1,12.1,0,0,1,3.069-5.161,12.253,12.253,0,0,1,16.082-1.113,12.252,12.252,0,0,1,19.191-6.388,11.973,11.973,0,0,1,3.094-5.288,12.241,12.241,0,0,1,17.311-.038L391.117,328.7a35.127,35.127,0,0,1-1.144,48.477l-10.059,10.059A34.937,34.937,0,0,1,355.045,397.538Z" id="BydRqHhGcM"/>
            <path d="M277.863,344.086a3.208,3.208,0,0,1-1.317-.281,28.749,28.749,0,1,1,38-38.009,3.2,3.2,0,1,1-5.826,2.634,22.353,22.353,0,1,0-29.543,29.543,3.2,3.2,0,0,1-1.317,6.113Z" id="BJY0qrnG5M"/>
        </g>
    </g>
    <g id="Bk5A9B3zqf_B1C6KhfcM" data-animator-group="true" data-animator-type="0">
        <g id="Bk5A9B3zqf">
            <path d="M118.352,406.9a49.358,49.358,0,1,0-69.8,0,49.41,49.41,0,0,0,69.8,0ZM53.935,342.474a41.745,41.745,0,1,1,0,59.044,41.793,41.793,0,0,1,0-59.044Zm34.939,18.953a8.1,8.1,0,1,1,16.191,0,2.326,2.326,0,1,1-4.652,0,3.444,3.444,0,1,0-6.887,0,2.326,2.326,0,1,1-4.652,0Zm-25.795-.022a8.1,8.1,0,0,1,16.2,0,2.326,2.326,0,0,1-4.652,0,3.446,3.446,0,0,0-6.892,0,2.326,2.326,0,0,1-4.652,0ZM62.048,382.2a2.791,2.791,0,1,1,5.156-2.14c2.586,6.22,8.982,10.24,16.3,10.24a17.47,17.47,0,0,0,16.21-10.244,2.788,2.788,0,1,1,5.119,2.212,23.03,23.03,0,0,1-21.329,13.61c-9.585,0-18.007-5.365-21.46-13.678Zm0,0" id="r1sA9rhGcM"/>
        </g>
    </g>
</svg>